<svg width="1000" height="500" viewBox="0 0 1000 500" fill="none" xmlns="http://www.w3.org/2000/svg">
<path d="M0 0H1000V500H0V0Z" fill="white"/>
<path d="M217.718 205.686C222.58 206.672 226.235 208.802 228.682 212.075C231.129 215.349 232.353 219.539 232.353 224.643C232.353 229.536 231.272 233.602 229.111 236.841C226.982 240.08 223.55 242.544 218.814 244.234C214.111 245.888 207.914 246.716 200.223 246.716C194.121 246.716 187.892 246.24 181.536 245.29V169.356C188.337 167.807 195.265 167.033 202.321 167.033C212.045 167.033 219.148 168.758 223.629 172.208C228.11 175.658 230.35 180.921 230.35 187.996C230.35 192.467 229.302 196.252 227.204 199.349C225.107 202.447 221.945 204.56 217.718 205.686ZM203.083 174.003C197.84 174.003 193.263 174.408 189.354 175.218V202.412H204.99C211.124 202.412 215.62 201.286 218.481 199.033C221.341 196.744 222.771 193.171 222.771 188.313C222.771 184.898 222.104 182.153 220.769 180.076C219.466 177.963 217.368 176.432 214.476 175.482C211.616 174.496 207.818 174.003 203.083 174.003ZM201.844 239.745C207.628 239.745 212.188 239.182 215.525 238.056C218.894 236.929 221.277 235.239 222.676 232.986C224.106 230.733 224.821 227.829 224.821 224.273C224.821 219.169 223.295 215.437 220.244 213.079C217.225 210.685 212.49 209.488 206.039 209.488H189.354V238.9C192.914 239.464 197.077 239.745 201.844 239.745Z" fill="black"/>
<path d="M244.662 246.029V167.878H252.623V238.425H289.71V246.029H244.662Z" fill="black"/>
<path d="M348.991 246.029L340.458 220.841H308.615L300.082 246.029H292.121L319.007 167.878H330.162L357.095 246.029H348.991ZM311.141 213.448H337.932L324.536 174.003L311.141 213.448Z" fill="black"/>
<path d="M396.584 247.032C374.021 247.032 362.739 233.726 362.739 207.112C362.739 193.523 365.742 183.42 371.748 176.802C377.755 170.183 386.304 166.874 397.395 166.874C403.083 166.874 408.597 167.702 413.936 169.356V176.96C408.692 175.306 403.306 174.478 397.776 174.478C388.941 174.478 382.283 177.048 377.802 182.188C373.321 187.292 371.081 195.53 371.081 206.901C371.081 214.821 372.114 221.176 374.179 225.963C376.245 230.751 379.185 234.201 382.998 236.313C386.844 238.39 391.579 239.428 397.204 239.428C400.064 239.428 402.813 239.2 405.451 238.742C408.12 238.249 410.949 237.439 413.936 236.313V243.917C408.661 245.994 402.877 247.032 396.584 247.032Z" fill="black"/>
<path d="M470.2 246.029L444.601 209.91H432.875V246.029H424.914V167.878H432.875V201.99H444.744L468.436 167.878H477.208L450.846 205.686L479.21 246.029H470.2Z" fill="black"/>
<path d="M527.546 247.032C524.432 247.032 521.238 246.751 517.965 246.187C514.723 245.624 511.672 244.797 508.812 243.706V236.155C511.895 237.316 515.057 238.179 518.298 238.742C521.54 239.305 524.638 239.587 527.594 239.587C539.861 239.587 545.994 234.799 545.994 225.224C545.994 222.584 545.486 220.401 544.469 218.676C543.484 216.916 541.911 215.455 539.75 214.293C537.589 213.096 534.649 212.04 530.931 211.125L526.831 210.122C520.284 208.502 515.438 205.968 512.292 202.518C509.177 199.033 507.62 194.456 507.62 188.788C507.62 184.247 508.605 180.34 510.576 177.066C512.546 173.792 515.486 171.275 519.395 169.515C523.335 167.754 528.198 166.874 533.982 166.874C539.988 166.874 545.597 167.737 550.809 169.462V177.013C545.502 175.218 539.956 174.32 534.172 174.32C527.912 174.32 523.256 175.534 520.205 177.963C517.154 180.357 515.629 183.807 515.629 188.313C515.629 190.918 516.074 193.083 516.963 194.808C517.853 196.533 519.299 197.994 521.301 199.191C523.304 200.388 526.021 201.409 529.453 202.254L533.553 203.31C540.671 205.035 545.851 207.605 549.093 211.019C552.366 214.434 554.003 218.993 554.003 224.696C554.003 229.413 552.97 233.444 550.904 236.788C548.839 240.133 545.82 242.685 541.847 244.445C537.906 246.17 533.139 247.032 527.546 247.032Z" fill="black"/>
<path d="M652.518 167.878H660.193L639.075 246.029H628.683L609.71 177.224L590.595 246.029H580.203L559.037 167.878H567.189L585.876 238.161L605.134 167.878H614.477L633.688 238.425L652.518 167.878Z" fill="black"/>
<path d="M715.733 246.029L707.2 220.841H675.356L666.823 246.029H658.863L685.748 167.878H696.903L723.837 246.029H715.733ZM677.883 213.448H704.673L691.278 174.003L677.883 213.448Z" fill="black"/>
<path d="M783.647 167.878H791.179V246.029H783.028L741.555 180.921V246.029H734.023V167.878H742.175L783.647 232.986V167.878Z" fill="black"/>
<path d="M278.144 331.7V300.439H281.329V328.658H296.164V331.7H278.144Z" fill="#252422"/>
<path d="M306.166 308.423C308.06 308.423 309.617 308.691 310.838 309.226C312.058 309.747 312.973 310.62 313.584 311.845C314.206 313.07 314.518 314.725 314.518 316.809V331.7H311.906L311.677 329.102H311.467C310.755 330.031 309.827 330.763 308.683 331.299C307.539 331.82 306.325 332.08 305.041 332.08C303.668 332.08 302.486 331.827 301.495 331.32C300.516 330.813 299.766 330.088 299.244 329.144C298.723 328.201 298.463 327.088 298.463 325.807C298.463 323.807 299.086 322.258 300.331 321.16C301.577 320.048 303.567 319.344 306.3 319.048L311.448 318.435V316.661C311.448 315.267 311.238 314.176 310.819 313.387C310.412 312.599 309.795 312.042 308.969 311.718C308.156 311.395 307.094 311.233 305.785 311.233C304.87 311.233 303.891 311.324 302.848 311.507C301.806 311.676 300.795 311.944 299.817 312.31V309.501C300.719 309.149 301.736 308.881 302.867 308.698C303.999 308.515 305.098 308.423 306.166 308.423ZM305.804 329.419C306.859 329.419 307.87 329.193 308.836 328.743C309.814 328.278 310.685 327.588 311.448 326.673V320.738L306.509 321.329C304.781 321.554 303.535 322.005 302.772 322.681C302.009 323.343 301.628 324.286 301.628 325.511C301.628 326.764 301.978 327.729 302.677 328.405C303.376 329.081 304.418 329.419 305.804 329.419Z" fill="#252422"/>
<path d="M347.157 308.783H350.112L343.724 331.7H340.044L334.438 312.141L328.813 331.7H325.114L318.688 308.783H321.758L327.116 328.13L332.627 308.783H336.307L341.799 328.067L347.157 308.783Z" fill="#252422"/>
<path d="M369.412 308.783H372.539L360.774 340.994H357.647L361.06 331.7H360.183L351.812 308.783H355.149L362.204 328.912L369.412 308.783Z" fill="#252422"/>
<path d="M392.124 321.371H377.918C378.007 324.159 378.668 326.18 379.901 327.433C381.134 328.672 383.003 329.292 385.507 329.292C387.21 329.292 389.066 328.961 391.075 328.299V331.108C389.066 331.77 387.09 332.101 385.145 332.101C381.687 332.101 379.087 331.144 377.346 329.229C375.617 327.299 374.753 324.3 374.753 320.231C374.753 317.654 375.102 315.485 375.801 313.725C376.513 311.965 377.53 310.641 378.852 309.754C380.174 308.867 381.763 308.423 383.619 308.423C386.365 308.423 388.469 309.43 389.931 311.444C391.393 313.443 392.124 316.401 392.124 320.315V321.371ZM383.6 310.916C381.782 310.916 380.39 311.564 379.424 312.859C378.471 314.155 377.969 316.21 377.918 319.027H389.149C389.098 316.21 388.609 314.155 387.681 312.859C386.753 311.564 385.393 310.916 383.6 310.916Z" fill="#252422"/>
<path d="M396.864 308.783H399.476L399.743 311.845H399.934C400.671 310.803 401.618 309.994 402.775 309.416C403.945 308.839 405.159 308.55 406.417 308.55C407.065 308.55 407.701 308.614 408.324 308.74V311.951C407.752 311.838 407.065 311.782 406.265 311.782C405.146 311.782 404.002 312.049 402.832 312.584C401.676 313.12 400.729 313.901 399.991 314.929V331.7H396.864V308.783Z" fill="#252422"/>
<path d="M416.916 332.101C414.627 332.101 412.562 331.784 410.718 331.151V328.384C411.786 328.736 412.816 328.989 413.807 329.144C414.812 329.299 415.854 329.376 416.935 329.376C418.841 329.376 420.227 329.053 421.091 328.405C421.969 327.757 422.407 326.807 422.407 325.553C422.407 324.525 422.153 323.744 421.644 323.209C421.149 322.66 420.271 322.258 419.013 322.005L415.848 321.35C413.916 320.942 412.511 320.231 411.634 319.217C410.769 318.189 410.337 316.816 410.337 315.098C410.337 313.774 410.649 312.613 411.271 311.613C411.894 310.613 412.848 309.832 414.132 309.268C415.416 308.705 417.03 308.423 418.975 308.423C420.882 308.423 422.642 308.677 424.257 309.184V311.951C423.367 311.669 422.502 311.465 421.663 311.338C420.824 311.212 419.947 311.148 419.032 311.148C417.011 311.148 415.555 311.5 414.666 312.204C413.788 312.894 413.35 313.831 413.35 315.014C413.35 315.943 413.591 316.696 414.074 317.274C414.57 317.851 415.422 318.273 416.63 318.541L419.776 319.175C421.746 319.583 423.176 320.28 424.066 321.266C424.969 322.237 425.42 323.596 425.42 325.342C425.42 327.468 424.695 329.13 423.246 330.327C421.81 331.51 419.699 332.101 416.916 332.101Z" fill="#252422"/>
<path d="M465.676 332.122L460.356 327.94C459.377 329.306 458.068 330.341 456.428 331.045C454.788 331.735 452.856 332.08 450.631 332.08C448.191 332.08 446.144 331.714 444.491 330.982C442.852 330.235 441.631 329.2 440.83 327.877C440.029 326.539 439.629 324.983 439.629 323.209C439.629 321.308 440.068 319.639 440.945 318.203C441.835 316.767 443.08 315.633 444.682 314.802C443.996 313.873 443.506 312.951 443.214 312.035C442.921 311.12 442.775 310.12 442.775 309.036C442.775 306.163 443.652 303.946 445.407 302.383C447.174 300.82 449.805 300.038 453.301 300.038C455.182 300.038 456.892 300.256 458.43 300.693V303.713C456.917 303.249 455.258 303.016 453.453 303.016C450.86 303.016 448.966 303.53 447.771 304.558C446.589 305.586 445.998 307.093 445.998 309.078C445.998 310.022 446.138 310.874 446.417 311.634C446.697 312.38 447.193 313.162 447.905 313.979C448.616 314.781 449.646 315.732 450.994 316.83L459.479 323.483C459.682 322.639 459.784 321.66 459.784 320.547C459.784 319.646 459.708 318.703 459.555 317.717C459.403 316.717 459.186 315.753 458.907 314.823H461.614C462.148 316.654 462.415 318.562 462.415 320.547C462.415 322.294 462.186 323.857 461.729 325.237L467.182 329.524L465.676 332.122ZM450.917 329.376C454.362 329.376 456.809 328.356 458.258 326.314L449.487 319.428C448.203 318.428 447.135 317.499 446.284 316.64C443.983 318.034 442.832 320.104 442.832 322.85C442.832 324.863 443.493 326.455 444.816 327.623C446.138 328.792 448.171 329.376 450.917 329.376Z" fill="#252422"/>
<path d="M492.909 332.101C483.884 332.101 479.371 326.778 479.371 316.133C479.371 310.698 480.572 306.656 482.975 304.009C485.378 301.362 488.797 300.038 493.234 300.038C495.509 300.038 497.715 300.369 499.85 301.031V304.072C497.753 303.411 495.598 303.08 493.386 303.08C489.852 303.08 487.189 304.108 485.397 306.163C483.604 308.205 482.708 311.5 482.708 316.049C482.708 319.217 483.121 321.758 483.947 323.674C484.774 325.589 485.95 326.969 487.475 327.813C489.013 328.644 490.907 329.06 493.157 329.06C494.301 329.06 495.401 328.968 496.456 328.785C497.524 328.588 498.655 328.264 499.85 327.813V330.855C497.74 331.686 495.426 332.101 492.909 332.101Z" fill="#252422"/>
<path d="M511.148 332.101C508.211 332.101 505.917 331.123 504.264 329.165C502.612 327.208 501.786 324.237 501.786 320.252C501.786 316.295 502.612 313.338 504.264 311.381C505.917 309.409 508.211 308.423 511.148 308.423C514.11 308.423 516.404 309.402 518.031 311.359C519.671 313.303 520.491 316.267 520.491 320.252C520.491 322.899 520.11 325.11 519.347 326.884C518.584 328.644 517.504 329.954 516.106 330.813C514.707 331.672 513.055 332.101 511.148 332.101ZM511.148 329.292C513.131 329.292 514.65 328.588 515.705 327.18C516.773 325.772 517.307 323.476 517.307 320.294C517.307 317.069 516.779 314.753 515.724 313.345C514.669 311.937 513.144 311.233 511.148 311.233C509.152 311.233 507.62 311.937 506.553 313.345C505.497 314.739 504.97 317.027 504.97 320.21C504.97 323.434 505.497 325.758 506.553 327.18C507.62 328.588 509.152 329.292 511.148 329.292Z" fill="#252422"/>
<path d="M525.573 308.783H528.204L528.433 311.402H528.643C529.571 310.444 530.639 309.712 531.846 309.205C533.054 308.684 534.325 308.423 535.66 308.423C537.91 308.423 539.664 309.113 540.923 310.493C542.194 311.859 542.829 314.021 542.829 316.978V331.7H539.702V317.105C539.702 315.119 539.289 313.69 538.463 312.817C537.649 311.944 536.467 311.507 534.916 311.507C533.81 311.507 532.698 311.754 531.579 312.247C530.461 312.739 529.501 313.493 528.7 314.507V331.7H525.573V308.783Z" fill="#252422"/>
<path d="M554.19 332.101C551.902 332.101 549.836 331.784 547.993 331.151V328.384C549.061 328.736 550.09 328.989 551.082 329.144C552.086 329.299 553.128 329.376 554.209 329.376C556.116 329.376 557.501 329.053 558.366 328.405C559.243 327.757 559.682 326.807 559.682 325.553C559.682 324.525 559.427 323.744 558.919 323.209C558.423 322.66 557.546 322.258 556.287 322.005L553.122 321.35C551.19 320.942 549.785 320.231 548.908 319.217C548.044 318.189 547.611 316.816 547.611 315.098C547.611 313.774 547.923 312.613 548.546 311.613C549.169 310.613 550.122 309.832 551.406 309.268C552.69 308.705 554.304 308.423 556.249 308.423C558.156 308.423 559.917 308.677 561.531 309.184V311.951C560.641 311.669 559.777 311.465 558.938 311.338C558.099 311.212 557.222 311.148 556.306 311.148C554.285 311.148 552.83 311.5 551.94 312.204C551.063 312.894 550.624 313.831 550.624 315.014C550.624 315.943 550.866 316.696 551.349 317.274C551.845 317.851 552.696 318.273 553.904 318.541L557.05 319.175C559.02 319.583 560.451 320.28 561.34 321.266C562.243 322.237 562.694 323.596 562.694 325.342C562.694 327.468 561.97 329.13 560.521 330.327C559.084 331.51 556.974 332.101 554.19 332.101Z" fill="#252422"/>
<path d="M574.111 332.08C571.899 332.08 570.158 331.404 568.887 330.052C567.628 328.701 566.999 326.56 566.999 323.631V308.783H570.126V323.462C570.126 325.434 570.533 326.856 571.346 327.729C572.16 328.588 573.31 329.017 574.798 329.017C575.904 329.017 577.003 328.764 578.096 328.257C579.202 327.736 580.143 326.976 580.918 325.976V308.783H584.046V331.7H581.433L581.204 329.165H581.014C580.086 330.123 579.031 330.848 577.849 331.341C576.666 331.834 575.421 332.08 574.111 332.08Z" fill="#252422"/>
<path d="M590.262 331.7V297.567H593.389V331.7H590.262Z" fill="#252422"/>
<path d="M608.686 329.123C609.411 329.123 610.333 328.996 611.451 328.743V331.658C610.269 331.953 609.119 332.101 608 332.101C605.674 332.101 603.9 331.453 602.68 330.158C601.46 328.848 600.85 326.856 600.85 324.18V311.634H596.769V308.783H600.85L601.383 300.439H603.977V308.783H611.127V311.634H603.977V323.61C603.977 325.582 604.364 326.997 605.14 327.856C605.915 328.701 607.097 329.123 608.686 329.123Z" fill="#252422"/>
<path d="M621.495 308.423C623.389 308.423 624.946 308.691 626.167 309.226C627.387 309.747 628.302 310.62 628.912 311.845C629.535 313.07 629.847 314.725 629.847 316.809V331.7H627.235L627.006 329.102H626.796C626.084 330.031 625.156 330.763 624.012 331.299C622.868 331.82 621.654 332.08 620.37 332.08C618.997 332.08 617.815 331.827 616.823 331.32C615.845 330.813 615.095 330.088 614.573 329.144C614.052 328.201 613.792 327.088 613.792 325.807C613.792 323.807 614.414 322.258 615.66 321.16C616.906 320.048 618.895 319.344 621.629 319.048L626.777 318.435V316.661C626.777 315.267 626.567 314.176 626.148 313.387C625.741 312.599 625.124 312.042 624.298 311.718C623.484 311.395 622.423 311.233 621.114 311.233C620.198 311.233 619.22 311.324 618.177 311.507C617.135 311.676 616.124 311.944 615.145 312.31V309.501C616.048 309.149 617.065 308.881 618.196 308.698C619.328 308.515 620.427 308.423 621.495 308.423ZM621.133 329.419C622.188 329.419 623.198 329.193 624.165 328.743C625.143 328.278 626.014 327.588 626.777 326.673V320.738L621.838 321.329C620.109 321.554 618.864 322.005 618.101 322.681C617.338 323.343 616.957 324.286 616.957 325.511C616.957 326.764 617.306 327.729 618.006 328.405C618.705 329.081 619.747 329.419 621.133 329.419Z" fill="#252422"/>
<path d="M635.809 308.783H638.441L638.67 311.402H638.879C639.807 310.444 640.875 309.712 642.083 309.205C643.29 308.684 644.562 308.423 645.896 308.423C648.146 308.423 649.901 309.113 651.159 310.493C652.43 311.859 653.066 314.021 653.066 316.978V331.7H649.939V317.105C649.939 315.119 649.526 313.69 648.699 312.817C647.886 311.944 646.704 311.507 645.153 311.507C644.047 311.507 642.935 311.754 641.816 312.247C640.697 312.739 639.737 313.493 638.937 314.507V331.7H635.809V308.783Z" fill="#252422"/>
<path d="M668.088 329.123C668.812 329.123 669.734 328.996 670.852 328.743V331.658C669.67 331.953 668.52 332.101 667.401 332.101C665.075 332.101 663.302 331.453 662.081 330.158C660.861 328.848 660.251 326.856 660.251 324.18V311.634H656.17V308.783H660.251L660.785 300.439H663.378V308.783H670.528V311.634H663.378V323.61C663.378 325.582 663.766 326.997 664.541 327.856C665.316 328.701 666.499 329.123 668.088 329.123Z" fill="#252422"/>
<path d="M679.212 332.101C676.924 332.101 674.858 331.784 673.015 331.151V328.384C674.082 328.736 675.112 328.989 676.104 329.144C677.108 329.299 678.15 329.376 679.231 329.376C681.138 329.376 682.523 329.053 683.388 328.405C684.265 327.757 684.703 326.807 684.703 325.553C684.703 324.525 684.449 323.744 683.941 323.209C683.445 322.66 682.568 322.258 681.309 322.005L678.144 321.35C676.212 320.942 674.807 320.231 673.93 319.217C673.065 318.189 672.633 316.816 672.633 315.098C672.633 313.774 672.945 312.613 673.568 311.613C674.19 310.613 675.144 309.832 676.428 309.268C677.712 308.705 679.326 308.423 681.271 308.423C683.178 308.423 684.938 308.677 686.553 309.184V311.951C685.663 311.669 684.799 311.465 683.96 311.338C683.121 311.212 682.243 311.148 681.328 311.148C679.307 311.148 677.852 311.5 676.962 312.204C676.085 312.894 675.646 313.831 675.646 315.014C675.646 315.943 675.888 316.696 676.371 317.274C676.866 317.851 677.718 318.273 678.926 318.541L682.072 319.175C684.042 319.583 685.472 320.28 686.362 321.266C687.265 322.237 687.716 323.596 687.716 325.342C687.716 327.468 686.991 329.13 685.542 330.327C684.106 331.51 681.996 332.101 679.212 332.101Z" fill="#252422"/>
<path d="M229.616 272.178H748.875V278.515H229.616V272.178Z" fill="#252422"/>
</svg>
