<svg width="21492" height="8126" viewBox="0 0 21492 8126" fill="none" xmlns="http://www.w3.org/2000/svg">
<path d="M2221 2843C2348.5 2866.33 2444.33 2916.75 2508.5 2994.25C2572.67 3071.75 2604.75 3170.92 2604.75 3291.75C2604.75 3407.58 2576.42 3503.83 2519.75 3580.5C2463.92 3657.17 2373.92 3715.5 2249.75 3755.5C2126.42 3794.67 1963.92 3814.25 1762.25 3814.25C1602.25 3814.25 1438.92 3803 1272.25 3780.5V1983C1450.58 1946.33 1632.25 1928 1817.25 1928C2072.25 1928 2258.5 1968.83 2376 2050.5C2493.5 2132.17 2552.25 2256.75 2552.25 2424.25C2552.25 2530.08 2524.75 2619.67 2469.75 2693C2414.75 2766.33 2331.83 2816.33 2221 2843ZM1837.25 2093C1699.75 2093 1579.75 2102.58 1477.25 2121.75V2765.5H1887.25C2048.08 2765.5 2166 2738.83 2241 2685.5C2316 2631.33 2353.5 2546.75 2353.5 2431.75C2353.5 2350.92 2336 2285.92 2301 2236.75C2266.83 2186.75 2211.83 2150.5 2136 2128C2061 2104.67 1961.42 2093 1837.25 2093ZM1804.75 3649.25C1956.42 3649.25 2076 3635.92 2163.5 3609.25C2251.83 3582.58 2314.33 3542.58 2351 3489.25C2388.5 3435.92 2407.25 3367.17 2407.25 3283C2407.25 3162.17 2367.25 3073.83 2287.25 3018C2208.08 2961.33 2083.92 2933 1914.75 2933H1477.25V3629.25C1570.58 3642.58 1679.75 3649.25 1804.75 3649.25ZM2927.52 3798V1948H3136.27V3618H4108.77V3798H2927.52ZM5663.25 3798L5439.5 3201.75H4604.5L4380.75 3798H4172L4877 1948H5169.5L5875.75 3798H5663.25ZM4670.75 3026.75H5373.25L5022 2093L4670.75 3026.75ZM6911.23 3821.75C6319.57 3821.75 6023.73 3506.75 6023.73 2876.75C6023.73 2555.08 6102.48 2315.92 6259.98 2159.25C6417.48 2002.58 6641.65 1924.25 6932.48 1924.25C7081.65 1924.25 7226.23 1943.83 7366.23 1983V2163C7228.73 2123.83 7087.48 2104.25 6942.48 2104.25C6710.82 2104.25 6536.23 2165.08 6418.73 2286.75C6301.23 2407.58 6242.48 2602.58 6242.48 2871.75C6242.48 3059.25 6269.57 3209.67 6323.73 3323C6377.9 3436.33 6454.98 3518 6554.98 3568C6655.82 3617.17 6779.98 3641.75 6927.48 3641.75C7002.48 3641.75 7074.57 3636.33 7143.73 3625.5C7213.73 3613.83 7287.9 3594.67 7366.23 3568V3748C7227.9 3797.17 7076.23 3821.75 6911.23 3821.75ZM8841.59 3798L8170.34 2943H7862.84V3798H7654.09V1948H7862.84V2755.5H8174.09L8795.34 1948H9025.34L8334.09 2843L9077.84 3798H8841.59ZM10345.3 3821.75C10263.6 3821.75 10179.9 3815.08 10094.1 3801.75C10009.1 3788.42 9929.07 3768.83 9854.07 3743V3564.25C9934.9 3591.75 10017.8 3612.17 10102.8 3625.5C10187.8 3638.83 10269.1 3645.5 10346.6 3645.5C10668.2 3645.5 10829.1 3532.17 10829.1 3305.5C10829.1 3243 10815.7 3191.33 10789.1 3150.5C10763.2 3108.83 10722 3074.25 10665.3 3046.75C10608.6 3018.42 10531.6 2993.42 10434.1 2971.75L10326.6 2948C10154.9 2909.67 10027.8 2849.67 9945.32 2768C9863.65 2685.5 9822.82 2577.17 9822.82 2443C9822.82 2335.5 9848.65 2243 9900.32 2165.5C9951.98 2088 10029.1 2028.42 10131.6 1986.75C10234.9 1945.08 10362.4 1924.25 10514.1 1924.25C10671.6 1924.25 10818.6 1944.67 10955.3 1985.5V2164.25C10816.1 2121.75 10670.7 2100.5 10519.1 2100.5C10354.9 2100.5 10232.8 2129.25 10152.8 2186.75C10072.8 2243.42 10032.8 2325.08 10032.8 2431.75C10032.8 2493.42 10044.5 2544.67 10067.8 2585.5C10091.1 2626.33 10129.1 2660.92 10181.6 2689.25C10234.1 2717.58 10305.3 2741.75 10395.3 2761.75L10502.8 2786.75C10689.5 2827.58 10825.3 2888.42 10910.3 2969.25C10996.1 3050.08 11039.1 3158 11039.1 3293C11039.1 3404.67 11012 3500.08 10957.8 3579.25C10903.6 3658.42 10824.5 3718.83 10720.3 3760.5C10617 3801.33 10492 3821.75 10345.3 3821.75ZM13622.3 1948H13823.6L13269.8 3798H12997.3L12499.8 2169.25L11998.6 3798H11726.1L11171.1 1948H11384.8L11874.8 3611.75L12379.8 1948H12624.8L13128.6 3618L13622.3 1948ZM15279.9 3798L15056.2 3201.75H14221.2L13997.4 3798H13788.7L14493.7 1948H14786.2L15492.4 3798H15279.9ZM14287.4 3026.75H14989.9L14638.7 2093L14287.4 3026.75ZM17060.8 1948H17258.3V3798H17044.6L15957.1 2256.75V3798H15759.6V1948H15973.3L17060.8 3489.25V1948Z" fill="black"/>
<path d="M3805.5 5826V5086H3889V5754H4278V5826H3805.5ZM4540.29 5275C4589.96 5275 4630.79 5281.33 4662.79 5294C4694.79 5306.33 4718.79 5327 4734.79 5356C4751.12 5385 4759.29 5424.17 4759.29 5473.5V5826H4690.79L4684.79 5764.5H4679.29C4660.62 5786.5 4636.29 5803.83 4606.29 5816.5C4576.29 5828.83 4544.46 5835 4510.79 5835C4474.79 5835 4443.79 5829 4417.79 5817C4392.12 5805 4372.46 5787.83 4358.79 5765.5C4345.12 5743.17 4338.29 5716.83 4338.29 5686.5C4338.29 5639.17 4354.62 5602.5 4387.29 5576.5C4419.96 5550.17 4472.12 5533.5 4543.79 5526.5L4678.79 5512V5470C4678.79 5437 4673.29 5411.17 4662.29 5392.5C4651.62 5373.83 4635.46 5360.67 4613.79 5353C4592.46 5345.33 4564.62 5341.5 4530.29 5341.5C4506.29 5341.5 4480.62 5343.67 4453.29 5348C4425.96 5352 4399.46 5358.33 4373.79 5367V5300.5C4397.46 5292.17 4424.12 5285.83 4453.79 5281.5C4483.46 5277.17 4512.29 5275 4540.29 5275ZM4530.79 5772C4558.46 5772 4584.96 5766.67 4610.29 5756C4635.96 5745 4658.79 5728.67 4678.79 5707V5566.5L4549.29 5580.5C4503.96 5585.83 4471.29 5596.5 4451.29 5612.5C4431.29 5628.17 4421.29 5650.5 4421.29 5679.5C4421.29 5709.17 4430.46 5732 4448.79 5748C4467.12 5764 4494.46 5772 4530.79 5772ZM5615.14 5283.5H5692.64L5525.14 5826H5428.64L5281.64 5363L5134.14 5826H5037.14L4868.64 5283.5H4949.14L5089.64 5741.5L5234.14 5283.5H5330.64L5474.64 5740L5615.14 5283.5ZM6198.72 5283.5H6280.72L5972.22 6046H5890.22L5979.72 5826H5956.72L5737.22 5283.5H5824.72L6009.72 5760L6198.72 5283.5ZM6794.27 5581.5H6421.77C6424.1 5647.5 6441.43 5695.33 6473.77 5725C6506.1 5754.33 6555.1 5769 6620.77 5769C6665.43 5769 6714.1 5761.17 6766.77 5745.5V5812C6714.1 5827.67 6662.27 5835.5 6611.27 5835.5C6520.6 5835.5 6452.43 5812.83 6406.77 5767.5C6361.43 5721.83 6338.77 5650.83 6338.77 5554.5C6338.77 5493.5 6347.93 5442.17 6366.27 5400.5C6384.93 5358.83 6411.6 5327.5 6446.27 5306.5C6480.93 5285.5 6522.6 5275 6571.27 5275C6643.27 5275 6698.43 5298.83 6736.77 5346.5C6775.1 5393.83 6794.27 5463.83 6794.27 5556.5V5581.5ZM6570.77 5334C6523.1 5334 6486.6 5349.33 6461.27 5380C6436.27 5410.67 6423.1 5459.33 6421.77 5526H6716.27C6714.93 5459.33 6702.1 5410.67 6677.77 5380C6653.43 5349.33 6617.77 5334 6570.77 5334ZM6918.57 5283.5H6987.07L6994.07 5356H6999.07C7018.4 5331.33 7043.24 5312.17 7073.57 5298.5C7104.24 5284.83 7136.07 5278 7169.07 5278C7186.07 5278 7202.74 5279.5 7219.07 5282.5V5358.5C7204.07 5355.83 7186.07 5354.5 7165.07 5354.5C7135.74 5354.5 7105.74 5360.83 7075.07 5373.5C7044.74 5386.17 7019.9 5404.67 7000.57 5429V5826H6918.57V5283.5ZM7444.36 5835.5C7384.36 5835.5 7330.19 5828 7281.86 5813V5747.5C7309.86 5755.83 7336.86 5761.83 7362.86 5765.5C7389.19 5769.17 7416.53 5771 7444.86 5771C7494.86 5771 7531.19 5763.33 7553.86 5748C7576.86 5732.67 7588.36 5710.17 7588.36 5680.5C7588.36 5656.17 7581.69 5637.67 7568.36 5625C7555.36 5612 7532.36 5602.5 7499.36 5596.5L7416.36 5581C7365.69 5571.33 7328.86 5554.5 7305.86 5530.5C7283.19 5506.17 7271.86 5473.67 7271.86 5433C7271.86 5401.67 7280.03 5374.17 7296.36 5350.5C7312.69 5326.83 7337.69 5308.33 7371.36 5295C7405.03 5281.67 7447.36 5275 7498.36 5275C7548.36 5275 7594.53 5281 7636.86 5293V5358.5C7613.53 5351.83 7590.86 5347 7568.86 5344C7546.86 5341 7523.86 5339.5 7499.86 5339.5C7446.86 5339.5 7408.69 5347.83 7385.36 5364.5C7362.36 5380.83 7350.86 5403 7350.86 5431C7350.86 5453 7357.19 5470.83 7369.86 5484.5C7382.86 5498.17 7405.19 5508.17 7436.86 5514.5L7519.36 5529.5C7571.03 5539.17 7608.53 5555.67 7631.86 5579C7655.53 5602 7667.36 5634.17 7667.36 5675.5C7667.36 5725.83 7648.36 5765.17 7610.36 5793.5C7572.69 5821.5 7517.36 5835.5 7444.36 5835.5ZM8722.95 5836L8583.45 5737C8557.79 5769.33 8523.45 5793.83 8480.45 5810.5C8437.45 5826.83 8386.79 5835 8328.45 5835C8264.45 5835 8210.79 5826.33 8167.45 5809C8124.45 5791.33 8092.45 5766.83 8071.45 5735.5C8050.45 5703.83 8039.95 5667 8039.95 5625C8039.95 5580 8051.45 5540.5 8074.45 5506.5C8097.79 5472.5 8130.45 5445.67 8172.45 5426C8154.45 5404 8141.62 5382.17 8133.95 5360.5C8126.29 5338.83 8122.45 5315.17 8122.45 5289.5C8122.45 5221.5 8145.45 5169 8191.45 5132C8237.79 5095 8306.79 5076.5 8398.45 5076.5C8447.79 5076.5 8492.62 5081.67 8532.95 5092V5163.5C8493.29 5152.5 8449.79 5147 8402.45 5147C8334.45 5147 8284.79 5159.17 8253.45 5183.5C8222.45 5207.83 8206.95 5243.5 8206.95 5290.5C8206.95 5312.83 8210.62 5333 8217.95 5351C8225.29 5368.67 8238.29 5387.17 8256.95 5406.5C8275.62 5425.5 8302.62 5448 8337.95 5474L8560.45 5631.5C8565.79 5611.5 8568.45 5588.33 8568.45 5562C8568.45 5540.67 8566.45 5518.33 8562.45 5495C8558.45 5471.33 8552.79 5448.5 8545.45 5426.5H8616.45C8630.45 5469.83 8637.45 5515 8637.45 5562C8637.45 5603.33 8631.45 5640.33 8619.45 5673L8762.45 5774.5L8722.95 5836ZM8335.95 5771C8426.29 5771 8490.45 5746.83 8528.45 5698.5L8298.45 5535.5C8264.79 5511.83 8236.79 5489.83 8214.45 5469.5C8154.12 5502.5 8123.95 5551.5 8123.95 5616.5C8123.95 5664.17 8141.29 5701.83 8175.95 5729.5C8210.62 5757.17 8263.95 5771 8335.95 5771ZM9437.07 5835.5C9200.4 5835.5 9082.07 5709.5 9082.07 5457.5C9082.07 5328.83 9113.57 5233.17 9176.57 5170.5C9239.57 5107.83 9329.24 5076.5 9445.57 5076.5C9505.24 5076.5 9563.07 5084.33 9619.07 5100V5172C9564.07 5156.33 9507.57 5148.5 9449.57 5148.5C9356.9 5148.5 9287.07 5172.83 9240.07 5221.5C9193.07 5269.83 9169.57 5347.83 9169.57 5455.5C9169.57 5530.5 9180.4 5590.67 9202.07 5636C9223.74 5681.33 9254.57 5714 9294.57 5734C9334.9 5753.67 9384.57 5763.5 9443.57 5763.5C9473.57 5763.5 9502.4 5761.33 9530.07 5757C9558.07 5752.33 9587.74 5744.67 9619.07 5734V5806C9563.74 5825.67 9503.07 5835.5 9437.07 5835.5ZM9915.32 5835.5C9838.32 5835.5 9778.15 5812.33 9734.82 5766C9691.49 5719.67 9669.82 5649.33 9669.82 5555C9669.82 5461.33 9691.49 5391.33 9734.82 5345C9778.15 5298.33 9838.32 5275 9915.32 5275C9992.99 5275 10053.2 5298.17 10095.8 5344.5C10138.8 5390.5 10160.3 5460.67 10160.3 5555C10160.3 5617.67 10150.3 5670 10130.3 5712C10110.3 5753.67 10082 5784.67 10045.3 5805C10008.7 5825.33 9965.32 5835.5 9915.32 5835.5ZM9915.32 5769C9967.32 5769 10007.2 5752.33 10034.8 5719C10062.8 5685.67 10076.8 5631.33 10076.8 5556C10076.8 5479.67 10063 5424.83 10035.3 5391.5C10007.7 5358.17 9967.65 5341.5 9915.32 5341.5C9862.99 5341.5 9822.82 5358.17 9794.82 5391.5C9767.15 5424.5 9753.32 5478.67 9753.32 5554C9753.32 5630.33 9767.15 5685.33 9794.82 5719C9822.82 5752.33 9862.99 5769 9915.32 5769ZM10293.6 5283.5H10362.6L10368.6 5345.5H10374.1C10398.4 5322.83 10426.4 5305.5 10458.1 5293.5C10489.7 5281.17 10523.1 5275 10558.1 5275C10617.1 5275 10663.1 5291.33 10696.1 5324C10729.4 5356.33 10746.1 5407.5 10746.1 5477.5V5826H10664.1V5480.5C10664.1 5433.5 10653.2 5399.67 10631.6 5379C10610.2 5358.33 10579.2 5348 10538.6 5348C10509.6 5348 10480.4 5353.83 10451.1 5365.5C10421.7 5377.17 10396.6 5395 10375.6 5419V5826H10293.6V5283.5ZM11044 5835.5C10984 5835.5 10929.8 5828 10881.5 5813V5747.5C10909.5 5755.83 10936.5 5761.83 10962.5 5765.5C10988.8 5769.17 11016.1 5771 11044.5 5771C11094.5 5771 11130.8 5763.33 11153.5 5748C11176.5 5732.67 11188 5710.17 11188 5680.5C11188 5656.17 11181.3 5637.67 11168 5625C11155 5612 11132 5602.5 11099 5596.5L11016 5581C10965.3 5571.33 10928.5 5554.5 10905.5 5530.5C10882.8 5506.17 10871.5 5473.67 10871.5 5433C10871.5 5401.67 10879.6 5374.17 10896 5350.5C10912.3 5326.83 10937.3 5308.33 10971 5295C11004.6 5281.67 11047 5275 11098 5275C11148 5275 11194.1 5281 11236.5 5293V5358.5C11213.1 5351.83 11190.5 5347 11168.5 5344C11146.5 5341 11123.5 5339.5 11099.5 5339.5C11046.5 5339.5 11008.3 5347.83 10985 5364.5C10962 5380.83 10950.5 5403 10950.5 5431C10950.5 5453 10956.8 5470.83 10969.5 5484.5C10982.5 5498.17 11004.8 5508.17 11036.5 5514.5L11119 5529.5C11170.6 5539.17 11208.1 5555.67 11231.5 5579C11255.1 5602 11267 5634.17 11267 5675.5C11267 5725.83 11248 5765.17 11210 5793.5C11172.3 5821.5 11117 5835.5 11044 5835.5ZM11566.3 5835C11508.3 5835 11462.7 5819 11429.3 5787C11396.3 5755 11379.8 5704.33 11379.8 5635V5283.5H11461.8V5631C11461.8 5677.67 11472.5 5711.33 11493.8 5732C11515.2 5752.33 11545.3 5762.5 11584.3 5762.5C11613.3 5762.5 11642.2 5756.5 11670.8 5744.5C11699.8 5732.17 11724.5 5714.17 11744.8 5690.5V5283.5H11826.8V5826H11758.3L11752.3 5766H11747.3C11723 5788.67 11695.3 5805.83 11664.3 5817.5C11633.3 5829.17 11600.7 5835 11566.3 5835ZM11989.9 5826V5018H12071.9V5826H11989.9ZM12473 5765C12492 5765 12516.1 5762 12545.5 5756V5825C12514.5 5832 12484.3 5835.5 12455 5835.5C12394 5835.5 12347.5 5820.17 12315.5 5789.5C12283.5 5758.5 12267.5 5711.33 12267.5 5648V5351H12160.5V5283.5H12267.5L12281.5 5086H12349.5V5283.5H12537V5351H12349.5V5634.5C12349.5 5681.17 12359.6 5714.67 12380 5735C12400.3 5755 12431.3 5765 12473 5765ZM12808.8 5275C12858.5 5275 12899.3 5281.33 12931.3 5294C12963.3 5306.33 12987.3 5327 13003.3 5356C13019.7 5385 13027.8 5424.17 13027.8 5473.5V5826H12959.3L12953.3 5764.5H12947.8C12929.2 5786.5 12904.8 5803.83 12874.8 5816.5C12844.8 5828.83 12813 5835 12779.3 5835C12743.3 5835 12712.3 5829 12686.3 5817C12660.7 5805 12641 5787.83 12627.3 5765.5C12613.7 5743.17 12606.8 5716.83 12606.8 5686.5C12606.8 5639.17 12623.2 5602.5 12655.8 5576.5C12688.5 5550.17 12740.7 5533.5 12812.3 5526.5L12947.3 5512V5470C12947.3 5437 12941.8 5411.17 12930.8 5392.5C12920.2 5373.83 12904 5360.67 12882.3 5353C12861 5345.33 12833.2 5341.5 12798.8 5341.5C12774.8 5341.5 12749.2 5343.67 12721.8 5348C12694.5 5352 12668 5358.33 12642.3 5367V5300.5C12666 5292.17 12692.7 5285.83 12722.3 5281.5C12752 5277.17 12780.8 5275 12808.8 5275ZM12799.3 5772C12827 5772 12853.5 5766.67 12878.8 5756C12904.5 5745 12927.3 5728.67 12947.3 5707V5566.5L12817.8 5580.5C12772.5 5585.83 12739.8 5596.5 12719.8 5612.5C12699.8 5628.17 12689.8 5650.5 12689.8 5679.5C12689.8 5709.17 12699 5732 12717.3 5748C12735.7 5764 12763 5772 12799.3 5772ZM13184.2 5283.5H13253.2L13259.2 5345.5H13264.7C13289 5322.83 13317 5305.5 13348.7 5293.5C13380.4 5281.17 13413.7 5275 13448.7 5275C13507.7 5275 13553.7 5291.33 13586.7 5324C13620 5356.33 13636.7 5407.5 13636.7 5477.5V5826H13554.7V5480.5C13554.7 5433.5 13543.9 5399.67 13522.2 5379C13500.9 5358.33 13469.9 5348 13429.2 5348C13400.2 5348 13371 5353.83 13341.7 5365.5C13312.4 5377.17 13287.2 5395 13266.2 5419V5826H13184.2V5283.5ZM14030.6 5765C14049.6 5765 14073.8 5762 14103.1 5756V5825C14072.1 5832 14041.9 5835.5 14012.6 5835.5C13951.6 5835.5 13905.1 5820.17 13873.1 5789.5C13841.1 5758.5 13825.1 5711.33 13825.1 5648V5351H13718.1V5283.5H13825.1L13839.1 5086H13907.1V5283.5H14094.6V5351H13907.1V5634.5C13907.1 5681.17 13917.3 5714.67 13937.6 5735C13957.9 5755 13988.9 5765 14030.6 5765ZM14322.3 5835.5C14262.3 5835.5 14208.1 5828 14159.8 5813V5747.5C14187.8 5755.83 14214.8 5761.83 14240.8 5765.5C14267.1 5769.17 14294.5 5771 14322.8 5771C14372.8 5771 14409.1 5763.33 14431.8 5748C14454.8 5732.67 14466.3 5710.17 14466.3 5680.5C14466.3 5656.17 14459.6 5637.67 14446.3 5625C14433.3 5612 14410.3 5602.5 14377.3 5596.5L14294.3 5581C14243.6 5571.33 14206.8 5554.5 14183.8 5530.5C14161.1 5506.17 14149.8 5473.67 14149.8 5433C14149.8 5401.67 14158 5374.17 14174.3 5350.5C14190.6 5326.83 14215.6 5308.33 14249.3 5295C14283 5281.67 14325.3 5275 14376.3 5275C14426.3 5275 14472.5 5281 14514.8 5293V5358.5C14491.5 5351.83 14468.8 5347 14446.8 5344C14424.8 5341 14401.8 5339.5 14377.8 5339.5C14324.8 5339.5 14286.6 5347.83 14263.3 5364.5C14240.3 5380.83 14228.8 5403 14228.8 5431C14228.8 5453 14235.1 5470.83 14247.8 5484.5C14260.8 5498.17 14283.1 5508.17 14314.8 5514.5L14397.3 5529.5C14449 5539.17 14486.5 5555.67 14509.8 5579C14533.5 5602 14545.3 5634.17 14545.3 5675.5C14545.3 5725.83 14526.3 5765.17 14488.3 5793.5C14450.6 5821.5 14395.3 5835.5 14322.3 5835.5Z" fill="#252422"/>
<rect x="2533" y="4417" width="13616" height="150" fill="#252422"/>
<rect width="18681" height="150" fill="#252422"/>
<rect x="18749" width="3000" height="150" transform="rotate(89.6947 18749 0)" fill="#252422"/>
<rect x="149.996" width="3000" height="150" transform="rotate(89.6947 149.996 0)" fill="#252422"/>
<rect x="18852.4" y="8097.75" width="18681" height="150" transform="rotate(179.914 18852.4 8097.75)" fill="#252422"/>
<rect x="103.469" y="8125.77" width="3000" height="150" transform="rotate(-90.3909 103.469 8125.77)" fill="#252422"/>
<rect x="18702.4" y="8097.98" width="3000" height="150" transform="rotate(-90.3909 18702.4 8097.98)" fill="#252422"/>
</svg>
