<svg width="15987" height="4122" viewBox="0 0 15987 4122" fill="none" xmlns="http://www.w3.org/2000/svg">
<path d="M949 919C1076.5 942.333 1172.33 992.75 1236.5 1070.25C1300.67 1147.75 1332.75 1246.92 1332.75 1367.75C1332.75 1483.58 1304.42 1579.83 1247.75 1656.5C1191.92 1733.17 1101.92 1791.5 977.75 1831.5C854.417 1870.67 691.917 1890.25 490.25 1890.25C330.25 1890.25 166.917 1879 0.25 1856.5V59.0001C178.583 22.3334 360.25 4.00003 545.25 4.00003C800.25 4.00003 986.5 44.8333 1104 126.5C1221.5 208.167 1280.25 332.75 1280.25 500.25C1280.25 606.083 1252.75 695.667 1197.75 769C1142.75 842.333 1059.83 892.333 949 919ZM565.25 169C427.75 169 307.75 178.583 205.25 197.75V841.5H615.25C776.083 841.5 894 814.833 969 761.5C1044 707.333 1081.5 622.75 1081.5 507.75C1081.5 426.917 1064 361.917 1029 312.75C994.833 262.75 939.833 226.5 864 204C789 180.667 689.417 169 565.25 169ZM532.75 1725.25C684.417 1725.25 804 1711.92 891.5 1685.25C979.833 1658.58 1042.33 1618.58 1079 1565.25C1116.5 1511.92 1135.25 1443.17 1135.25 1359C1135.25 1238.17 1095.25 1149.83 1015.25 1094C936.083 1037.33 811.917 1009 642.75 1009H205.25V1705.25C298.583 1718.58 407.75 1725.25 532.75 1725.25Z" fill="black"/>
<path d="M1655.52 1874V24.0001H1864.27V1694H2836.77V1874H1655.52Z" fill="black"/>
<path d="M4391.25 1874L4167.5 1277.75H3332.5L3108.75 1874H2900L3605 24.0001H3897.5L4603.75 1874H4391.25ZM3398.75 1102.75H4101.25L3750 169L3398.75 1102.75Z" fill="black"/>
<path d="M5639.23 1897.75C5047.57 1897.75 4751.73 1582.75 4751.73 952.75C4751.73 631.083 4830.48 391.917 4987.98 235.25C5145.48 78.5833 5369.65 0.25 5660.48 0.25C5809.65 0.25 5954.23 19.8334 6094.23 59.0001V239C5956.73 199.833 5815.48 180.25 5670.48 180.25C5438.82 180.25 5264.23 241.083 5146.73 362.75C5029.23 483.583 4970.48 678.583 4970.48 947.75C4970.48 1135.25 4997.57 1285.67 5051.73 1399C5105.9 1512.33 5182.98 1594 5282.98 1644C5383.82 1693.17 5507.98 1717.75 5655.48 1717.75C5730.48 1717.75 5802.57 1712.33 5871.73 1701.5C5941.73 1689.83 6015.9 1670.67 6094.23 1644V1824C5955.9 1873.17 5804.23 1897.75 5639.23 1897.75Z" fill="black"/>
<path d="M7569.59 1874L6898.34 1019H6590.84V1874H6382.09V24.0001H6590.84V831.5H6902.09L7523.34 24.0001H7753.34L7062.09 919L7805.84 1874H7569.59Z" fill="black"/>
<path d="M9073.32 1897.75C8991.65 1897.75 8907.9 1891.08 8822.07 1877.75C8737.07 1864.42 8657.07 1844.83 8582.07 1819V1640.25C8662.9 1667.75 8745.82 1688.17 8830.82 1701.5C8915.82 1714.83 8997.07 1721.5 9074.57 1721.5C9396.23 1721.5 9557.07 1608.17 9557.07 1381.5C9557.07 1319 9543.73 1267.33 9517.07 1226.5C9491.23 1184.83 9449.98 1150.25 9393.32 1122.75C9336.65 1094.42 9259.57 1069.42 9162.07 1047.75L9054.57 1024C8882.9 985.667 8755.82 925.667 8673.32 844C8591.65 761.5 8550.82 653.167 8550.82 519C8550.82 411.5 8576.65 319 8628.32 241.5C8679.98 164 8757.07 104.417 8859.57 62.7499C8962.9 21.0833 9090.4 0.25 9242.07 0.25C9399.57 0.25 9546.65 20.6667 9683.32 61.5V240.25C9544.15 197.75 9398.73 176.5 9247.07 176.5C9082.9 176.5 8960.82 205.25 8880.82 262.75C8800.82 319.417 8760.82 401.083 8760.82 507.75C8760.82 569.417 8772.48 620.667 8795.82 661.5C8819.15 702.333 8857.07 736.917 8909.57 765.25C8962.07 793.583 9033.32 817.75 9123.32 837.75L9230.82 862.75C9417.48 903.583 9553.32 964.417 9638.32 1045.25C9724.15 1126.08 9767.07 1234 9767.07 1369C9767.07 1480.67 9739.98 1576.08 9685.82 1655.25C9631.65 1734.42 9552.48 1794.83 9448.32 1836.5C9344.98 1877.33 9219.98 1897.75 9073.32 1897.75Z" fill="black"/>
<path d="M12350.3 24.0001H12551.6L11997.8 1874H11725.3L11227.8 245.25L10726.6 1874H10454.1L9899.08 24.0001H10112.8L10602.8 1687.75L11107.8 24.0001H11352.8L11856.6 1694L12350.3 24.0001Z" fill="black"/>
<path d="M14007.9 1874L13784.2 1277.75H12949.2L12725.4 1874H12516.7L13221.7 24.0001H13514.2L14220.4 1874H14007.9ZM13015.4 1102.75H13717.9L13366.7 169L13015.4 1102.75Z" fill="black"/>
<path d="M15788.8 24.0001H15986.3V1874H15772.6L14685.1 332.75V1874H14487.6V24.0001H14701.3L15788.8 1565.25V24.0001Z" fill="black"/>
<path d="M2533.5 3902V3162H2617V3830H3006V3902H2533.5Z" fill="#252422"/>
<path d="M3268.29 3351C3317.96 3351 3358.79 3357.33 3390.79 3370C3422.79 3382.33 3446.79 3403 3462.79 3432C3479.12 3461 3487.29 3500.17 3487.29 3549.5V3902H3418.79L3412.79 3840.5H3407.29C3388.62 3862.5 3364.29 3879.83 3334.29 3892.5C3304.29 3904.83 3272.46 3911 3238.79 3911C3202.79 3911 3171.79 3905 3145.79 3893C3120.12 3881 3100.46 3863.83 3086.79 3841.5C3073.12 3819.17 3066.29 3792.83 3066.29 3762.5C3066.29 3715.17 3082.62 3678.5 3115.29 3652.5C3147.96 3626.17 3200.12 3609.5 3271.79 3602.5L3406.79 3588V3546C3406.79 3513 3401.29 3487.17 3390.29 3468.5C3379.62 3449.83 3363.46 3436.67 3341.79 3429C3320.46 3421.33 3292.62 3417.5 3258.29 3417.5C3234.29 3417.5 3208.62 3419.67 3181.29 3424C3153.96 3428 3127.46 3434.33 3101.79 3443V3376.5C3125.46 3368.17 3152.12 3361.83 3181.79 3357.5C3211.46 3353.17 3240.29 3351 3268.29 3351ZM3258.79 3848C3286.46 3848 3312.96 3842.67 3338.29 3832C3363.96 3821 3386.79 3804.67 3406.79 3783V3642.5L3277.29 3656.5C3231.96 3661.83 3199.29 3672.5 3179.29 3688.5C3159.29 3704.17 3149.29 3726.5 3149.29 3755.5C3149.29 3785.17 3158.46 3808 3176.79 3824C3195.12 3840 3222.46 3848 3258.79 3848Z" fill="#252422"/>
<path d="M4343.14 3359.5H4420.64L4253.14 3902H4156.64L4009.64 3439L3862.14 3902H3765.14L3596.64 3359.5H3677.14L3817.64 3817.5L3962.14 3359.5H4058.64L4202.64 3816L4343.14 3359.5Z" fill="#252422"/>
<path d="M4926.72 3359.5H5008.72L4700.22 4122H4618.22L4707.72 3902H4684.72L4465.22 3359.5H4552.72L4737.72 3836L4926.72 3359.5Z" fill="#252422"/>
<path d="M5522.27 3657.5H5149.77C5152.1 3723.5 5169.43 3771.33 5201.77 3801C5234.1 3830.33 5283.1 3845 5348.77 3845C5393.43 3845 5442.1 3837.17 5494.77 3821.5V3888C5442.1 3903.67 5390.27 3911.5 5339.27 3911.5C5248.6 3911.5 5180.43 3888.83 5134.77 3843.5C5089.43 3797.83 5066.77 3726.83 5066.77 3630.5C5066.77 3569.5 5075.93 3518.17 5094.27 3476.5C5112.93 3434.83 5139.6 3403.5 5174.27 3382.5C5208.93 3361.5 5250.6 3351 5299.27 3351C5371.27 3351 5426.43 3374.83 5464.77 3422.5C5503.1 3469.83 5522.27 3539.83 5522.27 3632.5V3657.5ZM5298.77 3410C5251.1 3410 5214.6 3425.33 5189.27 3456C5164.27 3486.67 5151.1 3535.33 5149.77 3602H5444.27C5442.93 3535.33 5430.1 3486.67 5405.77 3456C5381.43 3425.33 5345.77 3410 5298.77 3410Z" fill="#252422"/>
<path d="M5646.57 3359.5H5715.07L5722.07 3432H5727.07C5746.4 3407.33 5771.24 3388.17 5801.57 3374.5C5832.24 3360.83 5864.07 3354 5897.07 3354C5914.07 3354 5930.74 3355.5 5947.07 3358.5V3434.5C5932.07 3431.83 5914.07 3430.5 5893.07 3430.5C5863.74 3430.5 5833.74 3436.83 5803.07 3449.5C5772.74 3462.17 5747.9 3480.67 5728.57 3505V3902H5646.57V3359.5Z" fill="#252422"/>
<path d="M6172.36 3911.5C6112.36 3911.5 6058.19 3904 6009.86 3889V3823.5C6037.86 3831.83 6064.86 3837.83 6090.86 3841.5C6117.19 3845.17 6144.53 3847 6172.86 3847C6222.86 3847 6259.19 3839.33 6281.86 3824C6304.86 3808.67 6316.36 3786.17 6316.36 3756.5C6316.36 3732.17 6309.69 3713.67 6296.36 3701C6283.36 3688 6260.36 3678.5 6227.36 3672.5L6144.36 3657C6093.69 3647.33 6056.86 3630.5 6033.86 3606.5C6011.19 3582.17 5999.86 3549.67 5999.86 3509C5999.86 3477.67 6008.03 3450.17 6024.36 3426.5C6040.69 3402.83 6065.69 3384.33 6099.36 3371C6133.03 3357.67 6175.36 3351 6226.36 3351C6276.36 3351 6322.53 3357 6364.86 3369V3434.5C6341.53 3427.83 6318.86 3423 6296.86 3420C6274.86 3417 6251.86 3415.5 6227.86 3415.5C6174.86 3415.5 6136.69 3423.83 6113.36 3440.5C6090.36 3456.83 6078.86 3479 6078.86 3507C6078.86 3529 6085.19 3546.83 6097.86 3560.5C6110.86 3574.17 6133.19 3584.17 6164.86 3590.5L6247.36 3605.5C6299.03 3615.17 6336.53 3631.67 6359.86 3655C6383.53 3678 6395.36 3710.17 6395.36 3751.5C6395.36 3801.83 6376.36 3841.17 6338.36 3869.5C6300.69 3897.5 6245.36 3911.5 6172.36 3911.5Z" fill="#252422"/>
<path d="M7450.95 3912L7311.45 3813C7285.79 3845.33 7251.45 3869.83 7208.45 3886.5C7165.45 3902.83 7114.79 3911 7056.45 3911C6992.45 3911 6938.79 3902.33 6895.45 3885C6852.45 3867.33 6820.45 3842.83 6799.45 3811.5C6778.45 3779.83 6767.95 3743 6767.95 3701C6767.95 3656 6779.45 3616.5 6802.45 3582.5C6825.79 3548.5 6858.45 3521.67 6900.45 3502C6882.45 3480 6869.62 3458.17 6861.95 3436.5C6854.29 3414.83 6850.45 3391.17 6850.45 3365.5C6850.45 3297.5 6873.45 3245 6919.45 3208C6965.79 3171 7034.79 3152.5 7126.45 3152.5C7175.79 3152.5 7220.62 3157.67 7260.95 3168V3239.5C7221.29 3228.5 7177.79 3223 7130.45 3223C7062.45 3223 7012.79 3235.17 6981.45 3259.5C6950.45 3283.83 6934.95 3319.5 6934.95 3366.5C6934.95 3388.83 6938.62 3409 6945.95 3427C6953.29 3444.67 6966.29 3463.17 6984.95 3482.5C7003.62 3501.5 7030.62 3524 7065.95 3550L7288.45 3707.5C7293.79 3687.5 7296.45 3664.33 7296.45 3638C7296.45 3616.67 7294.45 3594.33 7290.45 3571C7286.45 3547.33 7280.79 3524.5 7273.45 3502.5H7344.45C7358.45 3545.83 7365.45 3591 7365.45 3638C7365.45 3679.33 7359.45 3716.33 7347.45 3749L7490.45 3850.5L7450.95 3912ZM7063.95 3847C7154.29 3847 7218.45 3822.83 7256.45 3774.5L7026.45 3611.5C6992.79 3587.83 6964.79 3565.83 6942.45 3545.5C6882.12 3578.5 6851.95 3627.5 6851.95 3692.5C6851.95 3740.17 6869.29 3777.83 6903.95 3805.5C6938.62 3833.17 6991.95 3847 7063.95 3847Z" fill="#252422"/>
<path d="M8165.07 3911.5C7928.4 3911.5 7810.07 3785.5 7810.07 3533.5C7810.07 3404.83 7841.57 3309.17 7904.57 3246.5C7967.57 3183.83 8057.24 3152.5 8173.57 3152.5C8233.24 3152.5 8291.07 3160.33 8347.07 3176V3248C8292.07 3232.33 8235.57 3224.5 8177.57 3224.5C8084.9 3224.5 8015.07 3248.83 7968.07 3297.5C7921.07 3345.83 7897.57 3423.83 7897.57 3531.5C7897.57 3606.5 7908.4 3666.67 7930.07 3712C7951.74 3757.33 7982.57 3790 8022.57 3810C8062.9 3829.67 8112.57 3839.5 8171.57 3839.5C8201.57 3839.5 8230.4 3837.33 8258.07 3833C8286.07 3828.33 8315.74 3820.67 8347.07 3810V3882C8291.74 3901.67 8231.07 3911.5 8165.07 3911.5Z" fill="#252422"/>
<path d="M8643.32 3911.5C8566.32 3911.5 8506.15 3888.33 8462.82 3842C8419.49 3795.67 8397.82 3725.33 8397.82 3631C8397.82 3537.33 8419.49 3467.33 8462.82 3421C8506.15 3374.33 8566.32 3351 8643.32 3351C8720.99 3351 8781.15 3374.17 8823.82 3420.5C8866.82 3466.5 8888.32 3536.67 8888.32 3631C8888.32 3693.67 8878.32 3746 8858.32 3788C8838.32 3829.67 8809.99 3860.67 8773.32 3881C8736.65 3901.33 8693.32 3911.5 8643.32 3911.5ZM8643.32 3845C8695.32 3845 8735.15 3828.33 8762.82 3795C8790.82 3761.67 8804.82 3707.33 8804.82 3632C8804.82 3555.67 8790.99 3500.83 8763.32 3467.5C8735.65 3434.17 8695.65 3417.5 8643.32 3417.5C8590.99 3417.5 8550.82 3434.17 8522.82 3467.5C8495.15 3500.5 8481.32 3554.67 8481.32 3630C8481.32 3706.33 8495.15 3761.33 8522.82 3795C8550.82 3828.33 8590.99 3845 8643.32 3845Z" fill="#252422"/>
<path d="M9021.57 3359.5H9090.57L9096.57 3421.5H9102.07C9126.4 3398.83 9154.4 3381.5 9186.07 3369.5C9217.74 3357.17 9251.07 3351 9286.07 3351C9345.07 3351 9391.07 3367.33 9424.07 3400C9457.4 3432.33 9474.07 3483.5 9474.07 3553.5V3902H9392.07V3556.5C9392.07 3509.5 9381.24 3475.67 9359.57 3455C9338.24 3434.33 9307.24 3424 9266.57 3424C9237.57 3424 9208.4 3429.83 9179.07 3441.5C9149.74 3453.17 9124.57 3471 9103.57 3495V3902H9021.57V3359.5Z" fill="#252422"/>
<path d="M9771.97 3911.5C9711.97 3911.5 9657.8 3904 9609.47 3889V3823.5C9637.47 3831.83 9664.47 3837.83 9690.47 3841.5C9716.8 3845.17 9744.14 3847 9772.47 3847C9822.47 3847 9858.8 3839.33 9881.47 3824C9904.47 3808.67 9915.97 3786.17 9915.97 3756.5C9915.97 3732.17 9909.3 3713.67 9895.97 3701C9882.97 3688 9859.97 3678.5 9826.97 3672.5L9743.97 3657C9693.3 3647.33 9656.47 3630.5 9633.47 3606.5C9610.8 3582.17 9599.47 3549.67 9599.47 3509C9599.47 3477.67 9607.64 3450.17 9623.97 3426.5C9640.3 3402.83 9665.3 3384.33 9698.97 3371C9732.64 3357.67 9774.97 3351 9825.97 3351C9875.97 3351 9922.14 3357 9964.47 3369V3434.5C9941.14 3427.83 9918.47 3423 9896.47 3420C9874.47 3417 9851.47 3415.5 9827.47 3415.5C9774.47 3415.5 9736.3 3423.83 9712.97 3440.5C9689.97 3456.83 9678.47 3479 9678.47 3507C9678.47 3529 9684.8 3546.83 9697.47 3560.5C9710.47 3574.17 9732.8 3584.17 9764.47 3590.5L9846.97 3605.5C9898.64 3615.17 9936.14 3631.67 9959.47 3655C9983.14 3678 9994.97 3710.17 9994.97 3751.5C9994.97 3801.83 9975.97 3841.17 9937.97 3869.5C9900.3 3897.5 9844.97 3911.5 9771.97 3911.5Z" fill="#252422"/>
<path d="M10294.3 3911C10236.3 3911 10190.7 3895 10157.3 3863C10124.3 3831 10107.8 3780.33 10107.8 3711V3359.5H10189.8V3707C10189.8 3753.67 10200.5 3787.33 10221.8 3808C10243.2 3828.33 10273.3 3838.5 10312.3 3838.5C10341.3 3838.5 10370.2 3832.5 10398.8 3820.5C10427.8 3808.17 10452.5 3790.17 10472.8 3766.5V3359.5H10554.8V3902H10486.3L10480.3 3842H10475.3C10451 3864.67 10423.3 3881.83 10392.3 3893.5C10361.3 3905.17 10328.7 3911 10294.3 3911Z" fill="#252422"/>
<path d="M10717.9 3902V3094H10799.9V3902H10717.9Z" fill="#252422"/>
<path d="M11201 3841C11220 3841 11244.1 3838 11273.5 3832V3901C11242.5 3908 11212.3 3911.5 11183 3911.5C11122 3911.5 11075.5 3896.17 11043.5 3865.5C11011.5 3834.5 10995.5 3787.33 10995.5 3724V3427H10888.5V3359.5H10995.5L11009.5 3162H11077.5V3359.5H11265V3427H11077.5V3710.5C11077.5 3757.17 11087.6 3790.67 11108 3811C11128.3 3831 11159.3 3841 11201 3841Z" fill="#252422"/>
<path d="M11536.8 3351C11586.5 3351 11627.3 3357.33 11659.3 3370C11691.3 3382.33 11715.3 3403 11731.3 3432C11747.7 3461 11755.8 3500.17 11755.8 3549.5V3902H11687.3L11681.3 3840.5H11675.8C11657.2 3862.5 11632.8 3879.83 11602.8 3892.5C11572.8 3904.83 11541 3911 11507.3 3911C11471.3 3911 11440.3 3905 11414.3 3893C11388.7 3881 11369 3863.83 11355.3 3841.5C11341.7 3819.17 11334.8 3792.83 11334.8 3762.5C11334.8 3715.17 11351.2 3678.5 11383.8 3652.5C11416.5 3626.17 11468.7 3609.5 11540.3 3602.5L11675.3 3588V3546C11675.3 3513 11669.8 3487.17 11658.8 3468.5C11648.2 3449.83 11632 3436.67 11610.3 3429C11589 3421.33 11561.2 3417.5 11526.8 3417.5C11502.8 3417.5 11477.2 3419.67 11449.8 3424C11422.5 3428 11396 3434.33 11370.3 3443V3376.5C11394 3368.17 11420.7 3361.83 11450.3 3357.5C11480 3353.17 11508.8 3351 11536.8 3351ZM11527.3 3848C11555 3848 11581.5 3842.67 11606.8 3832C11632.5 3821 11655.3 3804.67 11675.3 3783V3642.5L11545.8 3656.5C11500.5 3661.83 11467.8 3672.5 11447.8 3688.5C11427.8 3704.17 11417.8 3726.5 11417.8 3755.5C11417.8 3785.17 11427 3808 11445.3 3824C11463.7 3840 11491 3848 11527.3 3848Z" fill="#252422"/>
<path d="M11912.2 3359.5H11981.2L11987.2 3421.5H11992.7C12017 3398.83 12045 3381.5 12076.7 3369.5C12108.4 3357.17 12141.7 3351 12176.7 3351C12235.7 3351 12281.7 3367.33 12314.7 3400C12348 3432.33 12364.7 3483.5 12364.7 3553.5V3902H12282.7V3556.5C12282.7 3509.5 12271.9 3475.67 12250.2 3455C12228.9 3434.33 12197.9 3424 12157.2 3424C12128.2 3424 12099 3429.83 12069.7 3441.5C12040.4 3453.17 12015.2 3471 11994.2 3495V3902H11912.2V3359.5Z" fill="#252422"/>
<path d="M12758.6 3841C12777.6 3841 12801.8 3838 12831.1 3832V3901C12800.1 3908 12769.9 3911.5 12740.6 3911.5C12679.6 3911.5 12633.1 3896.17 12601.1 3865.5C12569.1 3834.5 12553.1 3787.33 12553.1 3724V3427H12446.1V3359.5H12553.1L12567.1 3162H12635.1V3359.5H12822.6V3427H12635.1V3710.5C12635.1 3757.17 12645.3 3790.67 12665.6 3811C12685.9 3831 12716.9 3841 12758.6 3841Z" fill="#252422"/>
<path d="M13050.3 3911.5C12990.3 3911.5 12936.1 3904 12887.8 3889V3823.5C12915.8 3831.83 12942.8 3837.83 12968.8 3841.5C12995.1 3845.17 13022.5 3847 13050.8 3847C13100.8 3847 13137.1 3839.33 13159.8 3824C13182.8 3808.67 13194.3 3786.17 13194.3 3756.5C13194.3 3732.17 13187.6 3713.67 13174.3 3701C13161.3 3688 13138.3 3678.5 13105.3 3672.5L13022.3 3657C12971.6 3647.33 12934.8 3630.5 12911.8 3606.5C12889.1 3582.17 12877.8 3549.67 12877.8 3509C12877.8 3477.67 12886 3450.17 12902.3 3426.5C12918.6 3402.83 12943.6 3384.33 12977.3 3371C13011 3357.67 13053.3 3351 13104.3 3351C13154.3 3351 13200.5 3357 13242.8 3369V3434.5C13219.5 3427.83 13196.8 3423 13174.8 3420C13152.8 3417 13129.8 3415.5 13105.8 3415.5C13052.8 3415.5 13014.6 3423.83 12991.3 3440.5C12968.3 3456.83 12956.8 3479 12956.8 3507C12956.8 3529 12963.1 3546.83 12975.8 3560.5C12988.8 3574.17 13011.1 3584.17 13042.8 3590.5L13125.3 3605.5C13177 3615.17 13214.5 3631.67 13237.8 3655C13261.5 3678 13273.3 3710.17 13273.3 3751.5C13273.3 3801.83 13254.3 3841.17 13216.3 3869.5C13178.6 3897.5 13123.3 3911.5 13050.3 3911.5Z" fill="#252422"/>
<path d="M1261 2493H14877V2643H1261V2493Z" fill="#252422"/>
</svg>
