<svg width="15987" height="4122" viewBox="0 0 15987 4122" fill="none" xmlns="http://www.w3.org/2000/svg">
<path d="M949.008 919C1076.51 942.33 1172.34 992.75 1236.51 1070.25C1300.68 1147.75 1332.76 1246.92 1332.76 1367.75C1332.76 1483.58 1304.43 1579.83 1247.76 1656.5C1191.93 1733.17 1101.93 1791.5 977.758 1831.5C854.428 1870.67 691.928 1890.25 490.258 1890.25C330.258 1890.25 166.928 1879 0.257812 1856.5V59C178.588 22.33 360.258 4 545.258 4C800.258 4 986.508 44.83 1104.01 126.5C1221.51 208.17 1280.26 332.75 1280.26 500.25C1280.26 606.08 1252.76 695.67 1197.76 769C1142.76 842.33 1059.84 892.33 949.008 919ZM565.258 169C427.758 169 307.758 178.58 205.258 197.75V841.5H615.258C776.088 841.5 894.008 814.83 969.008 761.5C1044.01 707.33 1081.51 622.75 1081.51 507.75C1081.51 426.92 1064.01 361.92 1029.01 312.75C994.838 262.75 939.838 226.5 864.008 204C789.008 180.67 689.428 169 565.258 169ZM532.758 1725.25C684.428 1725.25 804.008 1711.92 891.508 1685.25C979.838 1658.58 1042.34 1618.58 1079.01 1565.25C1116.51 1511.92 1135.26 1443.17 1135.26 1359C1135.26 1238.17 1095.26 1149.83 1015.26 1094C936.088 1037.33 811.928 1009 642.758 1009H205.258V1705.25C298.588 1718.58 407.758 1725.25 532.758 1725.25ZM1655.53 1874V24H1864.28V1694H2836.78V1874H1655.53ZM4391.26 1874L4167.51 1277.75H3332.51L3108.76 1874H2900.01L3605.01 24H3897.51L4603.76 1874H4391.26ZM3398.76 1102.75H4101.26L3750.01 169L3398.76 1102.75ZM5639.24 1897.75C5047.58 1897.75 4751.74 1582.75 4751.74 952.75C4751.74 631.08 4830.49 391.92 4987.99 235.25C5145.49 78.58 5369.66 0.25 5660.49 0.25C5809.66 0.25 5954.24 19.83 6094.24 59V239C5956.74 199.83 5815.49 180.25 5670.49 180.25C5438.83 180.25 5264.24 241.08 5146.74 362.75C5029.24 483.58 4970.49 678.58 4970.49 947.75C4970.49 1135.25 4997.58 1285.67 5051.74 1399C5105.91 1512.33 5182.99 1594 5282.99 1644C5383.83 1693.17 5507.99 1717.75 5655.49 1717.75C5730.49 1717.75 5802.58 1712.33 5871.74 1701.5C5941.74 1689.83 6015.91 1670.67 6094.24 1644V1824C5955.91 1873.17 5804.24 1897.75 5639.24 1897.75ZM7569.6 1874L6898.35 1019H6590.85V1874H6382.1V24H6590.85V831.5H6902.1L7523.35 24H7753.35L7062.1 919L7805.85 1874H7569.6ZM9073.31 1897.75C8991.61 1897.75 8907.91 1891.08 8822.11 1877.75C8737.11 1864.42 8657.08 1844.83 8582.08 1819V1640.25C8662.91 1667.75 8745.81 1688.17 8830.81 1701.5C8915.81 1714.83 8997.11 1721.5 9074.61 1721.5C9396.21 1721.5 9557.11 1608.17 9557.11 1381.5C9557.11 1319 9543.71 1267.33 9517.11 1226.5C9491.21 1184.83 9450.01 1150.25 9393.31 1122.75C9336.61 1094.42 9259.61 1069.42 9162.11 1047.75L9054.61 1024C8882.91 985.67 8755.81 925.67 8673.33 844C8591.66 761.5 8550.83 653.17 8550.83 519C8550.83 411.5 8576.66 319 8628.33 241.5C8679.99 164 8757.11 104.42 8859.61 62.75C8962.91 21.08 9090.41 0.25 9242.11 0.25C9399.61 0.25 9546.61 20.67 9683.31 61.5V240.25C9544.11 197.75 9398.71 176.5 9247.11 176.5C9082.91 176.5 8960.81 205.25 8880.81 262.75C8800.81 319.42 8760.81 401.08 8760.81 507.75C8760.81 569.42 8772.51 620.67 8795.81 661.5C8819.11 702.33 8857.11 736.92 8909.61 765.25C8962.11 793.58 9033.31 817.75 9123.31 837.75L9230.81 862.75C9417.51 903.58 9553.31 964.42 9638.31 1045.25C9724.11 1126.08 9767.11 1234 9767.11 1369C9767.11 1480.67 9740.01 1576.08 9685.81 1655.25C9631.61 1734.42 9552.51 1794.83 9448.31 1836.5C9345.01 1877.33 9220.01 1897.75 9073.31 1897.75ZM12350.3 24H12551.6L11997.8 1874H11725.3L11227.8 245.25L10726.6 1874H10454.1L9899.11 24H10112.8L10602.8 1687.75L11107.8 24H11352.8L11856.6 1694L12350.3 24ZM14007.9 1874L13784.2 1277.75H12949.2L12725.4 1874H12516.7L13221.7 24H13514.2L14220.4 1874H14007.9ZM13015.4 1102.75H13717.9L13366.7 169L13015.4 1102.75ZM15788.8 24H15986.3V1874H15772.6L14685.1 332.75V1874H14487.6V24H14701.3L15788.8 1565.25V24Z" fill="white"/>
<path d="M2533.51 3902V3162H2617.01V3830H3006.01V3902H2533.51ZM3268.3 3351C3317.97 3351 3358.8 3357.33 3390.8 3370C3422.8 3382.33 3446.8 3403 3462.8 3432C3479.13 3461 3487.3 3500.17 3487.3 3549.5V3902H3418.8L3412.8 3840.5H3407.3C3388.63 3862.5 3364.3 3879.83 3334.3 3892.5C3304.3 3904.83 3272.47 3911 3238.8 3911C3202.8 3911 3171.8 3905 3145.8 3893C3120.13 3881 3100.47 3863.83 3086.8 3841.5C3073.13 3819.17 3066.3 3792.83 3066.3 3762.5C3066.3 3715.17 3082.63 3678.5 3115.3 3652.5C3147.97 3626.17 3200.13 3609.5 3271.8 3602.5L3406.8 3588V3546C3406.8 3513 3401.3 3487.17 3390.3 3468.5C3379.63 3449.83 3363.47 3436.67 3341.8 3429C3320.47 3421.33 3292.63 3417.5 3258.3 3417.5C3234.3 3417.5 3208.63 3419.67 3181.3 3424C3153.97 3428 3127.47 3434.33 3101.8 3443V3376.5C3125.47 3368.17 3152.13 3361.83 3181.8 3357.5C3211.47 3353.17 3240.3 3351 3268.3 3351ZM3258.8 3848C3286.47 3848 3312.97 3842.67 3338.3 3832C3363.97 3821 3386.8 3804.67 3406.8 3783V3642.5L3277.3 3656.5C3231.97 3661.83 3199.3 3672.5 3179.3 3688.5C3159.3 3704.17 3149.3 3726.5 3149.3 3755.5C3149.3 3785.17 3158.47 3808 3176.8 3824C3195.13 3840 3222.47 3848 3258.8 3848ZM4343.15 3359.5H4420.65L4253.15 3902H4156.65L4009.65 3439L3862.15 3902H3765.15L3596.65 3359.5H3677.15L3817.65 3817.5L3962.15 3359.5H4058.65L4202.65 3816L4343.15 3359.5ZM4926.73 3359.5H5008.73L4700.23 4122H4618.23L4707.73 3902H4684.73L4465.23 3359.5H4552.73L4737.73 3836L4926.73 3359.5ZM5522.28 3657.5H5149.78C5152.11 3723.5 5169.44 3771.33 5201.78 3801C5234.11 3830.33 5283.11 3845 5348.78 3845C5393.44 3845 5442.11 3837.17 5494.78 3821.5V3888C5442.11 3903.67 5390.28 3911.5 5339.28 3911.5C5248.61 3911.5 5180.44 3888.83 5134.78 3843.5C5089.44 3797.83 5066.78 3726.83 5066.78 3630.5C5066.78 3569.5 5075.94 3518.17 5094.28 3476.5C5112.94 3434.83 5139.61 3403.5 5174.28 3382.5C5208.94 3361.5 5250.61 3351 5299.28 3351C5371.28 3351 5426.44 3374.83 5464.78 3422.5C5503.11 3469.83 5522.28 3539.83 5522.28 3632.5V3657.5ZM5298.78 3410C5251.11 3410 5214.61 3425.33 5189.28 3456C5164.28 3486.67 5151.11 3535.33 5149.78 3602H5444.28C5442.94 3535.33 5430.11 3486.67 5405.78 3456C5381.44 3425.33 5345.78 3410 5298.78 3410ZM5646.58 3359.5H5715.08L5722.08 3432H5727.08C5746.41 3407.33 5771.25 3388.17 5801.58 3374.5C5832.25 3360.83 5864.08 3354 5897.08 3354C5914.08 3354 5930.75 3355.5 5947.08 3358.5V3434.5C5932.08 3431.83 5914.08 3430.5 5893.08 3430.5C5863.75 3430.5 5833.75 3436.83 5803.08 3449.5C5772.75 3462.17 5747.91 3480.67 5728.58 3505V3902H5646.58V3359.5ZM6172.37 3911.5C6112.37 3911.5 6058.2 3904 6009.87 3889V3823.5C6037.87 3831.83 6064.87 3837.83 6090.87 3841.5C6117.2 3845.17 6144.54 3847 6172.87 3847C6222.87 3847 6259.2 3839.33 6281.87 3824C6304.87 3808.67 6316.37 3786.17 6316.37 3756.5C6316.37 3732.17 6309.7 3713.67 6296.37 3701C6283.37 3688 6260.37 3678.5 6227.37 3672.5L6144.37 3657C6093.7 3647.33 6056.87 3630.5 6033.87 3606.5C6011.2 3582.17 5999.87 3549.67 5999.87 3509C5999.87 3477.67 6008.04 3450.17 6024.37 3426.5C6040.7 3402.83 6065.7 3384.33 6099.37 3371C6133.04 3357.67 6175.37 3351 6226.37 3351C6276.37 3351 6322.54 3357 6364.87 3369V3434.5C6341.54 3427.83 6318.87 3423 6296.87 3420C6274.87 3417 6251.87 3415.5 6227.87 3415.5C6174.87 3415.5 6136.7 3423.83 6113.37 3440.5C6090.37 3456.83 6078.87 3479 6078.87 3507C6078.87 3529 6085.2 3546.83 6097.87 3560.5C6110.87 3574.17 6133.2 3584.17 6164.87 3590.5L6247.37 3605.5C6299.04 3615.17 6336.54 3631.67 6359.87 3655C6383.54 3678 6395.37 3710.17 6395.37 3751.5C6395.37 3801.83 6376.37 3841.17 6338.37 3869.5C6300.7 3897.5 6245.37 3911.5 6172.37 3911.5ZM7450.96 3912L7311.46 3813C7285.8 3845.33 7251.46 3869.83 7208.46 3886.5C7165.46 3902.83 7114.8 3911 7056.46 3911C6992.46 3911 6938.8 3902.33 6895.46 3885C6852.46 3867.33 6820.46 3842.83 6799.46 3811.5C6778.46 3779.83 6767.96 3743 6767.96 3701C6767.96 3656 6779.46 3616.5 6802.46 3582.5C6825.8 3548.5 6858.46 3521.67 6900.46 3502C6882.46 3480 6869.63 3458.17 6861.96 3436.5C6854.3 3414.83 6850.46 3391.17 6850.46 3365.5C6850.46 3297.5 6873.46 3245 6919.46 3208C6965.8 3171 7034.8 3152.5 7126.46 3152.5C7175.8 3152.5 7220.63 3157.67 7260.96 3168V3239.5C7221.3 3228.5 7177.8 3223 7130.46 3223C7062.46 3223 7012.8 3235.17 6981.46 3259.5C6950.46 3283.83 6934.96 3319.5 6934.96 3366.5C6934.96 3388.83 6938.63 3409 6945.96 3427C6953.3 3444.67 6966.3 3463.17 6984.96 3482.5C7003.63 3501.5 7030.63 3524 7065.96 3550L7288.46 3707.5C7293.8 3687.5 7296.46 3664.33 7296.46 3638C7296.46 3616.67 7294.46 3594.33 7290.46 3571C7286.46 3547.33 7280.8 3524.5 7273.46 3502.5H7344.46C7358.46 3545.83 7365.46 3591 7365.46 3638C7365.46 3679.33 7359.46 3716.33 7347.46 3749L7490.46 3850.5L7450.96 3912ZM7063.96 3847C7154.3 3847 7218.46 3822.83 7256.46 3774.5L7026.46 3611.5C6992.8 3587.83 6964.8 3565.83 6942.46 3545.5C6882.13 3578.5 6851.96 3627.5 6851.96 3692.5C6851.96 3740.17 6869.3 3777.83 6903.96 3805.5C6938.63 3833.17 6991.96 3847 7063.96 3847ZM8165.08 3911.5C7928.41 3911.5 7810.08 3785.5 7810.08 3533.5C7810.08 3404.83 7841.58 3309.17 7904.58 3246.5C7967.58 3183.83 8057.25 3152.5 8173.58 3152.5C8233.25 3152.5 8291.08 3160.33 8347.08 3176V3248C8292.08 3232.33 8235.58 3224.5 8177.58 3224.5C8084.91 3224.5 8015.08 3248.83 7968.08 3297.5C7921.08 3345.83 7897.58 3423.83 7897.58 3531.5C7897.58 3606.5 7908.41 3666.67 7930.08 3712C7951.75 3757.33 7982.58 3790 8022.58 3810C8062.91 3829.67 8112.58 3839.5 8171.58 3839.5C8201.58 3839.5 8230.41 3837.33 8258.08 3833C8286.08 3828.33 8315.75 3820.67 8347.08 3810V3882C8291.75 3901.67 8231.08 3911.5 8165.08 3911.5ZM8643.33 3911.5C8566.33 3911.5 8506.16 3888.33 8462.83 3842C8419.5 3795.67 8397.83 3725.33 8397.83 3631C8397.83 3537.33 8419.5 3467.33 8462.83 3421C8506.16 3374.33 8566.33 3351 8643.33 3351C8721 3351 8781.21 3374.17 8823.81 3420.5C8866.81 3466.5 8888.31 3536.67 8888.31 3631C8888.31 3693.67 8878.31 3746 8858.31 3788C8838.31 3829.67 8810.01 3860.67 8773.31 3881C8736.71 3901.33 8693.33 3911.5 8643.33 3911.5ZM8643.33 3845C8695.33 3845 8735.21 3828.33 8762.81 3795C8790.81 3761.67 8804.81 3707.33 8804.81 3632C8804.81 3555.67 8791.01 3500.83 8763.31 3467.5C8735.71 3434.17 8695.66 3417.5 8643.33 3417.5C8591 3417.5 8550.83 3434.17 8522.83 3467.5C8495.16 3500.5 8481.33 3554.67 8481.33 3630C8481.33 3706.33 8495.16 3761.33 8522.83 3795C8550.83 3828.33 8591 3845 8643.33 3845ZM9021.61 3359.5H9090.61L9096.61 3421.5H9102.11C9126.41 3398.83 9154.41 3381.5 9186.11 3369.5C9217.71 3357.17 9251.11 3351 9286.11 3351C9345.11 3351 9391.11 3367.33 9424.11 3400C9457.41 3432.33 9474.11 3483.5 9474.11 3553.5V3902H9392.11V3556.5C9392.11 3509.5 9381.21 3475.67 9359.61 3455C9338.21 3434.33 9307.21 3424 9266.61 3424C9237.61 3424 9208.41 3429.83 9179.11 3441.5C9149.71 3453.17 9124.61 3471 9103.61 3495V3902H9021.61V3359.5ZM9772.01 3911.5C9712.01 3911.5 9657.81 3904 9609.51 3889V3823.5C9637.51 3831.83 9664.51 3837.83 9690.51 3841.5C9716.81 3845.17 9744.11 3847 9772.51 3847C9822.51 3847 9858.81 3839.33 9881.51 3824C9904.51 3808.67 9916.01 3786.17 9916.01 3756.5C9916.01 3732.17 9909.31 3713.67 9896.01 3701C9883.01 3688 9860.01 3678.5 9827.01 3672.5L9744.01 3657C9693.31 3647.33 9656.51 3630.5 9633.51 3606.5C9610.81 3582.17 9599.51 3549.67 9599.51 3509C9599.51 3477.67 9607.61 3450.17 9624.01 3426.5C9640.31 3402.83 9665.31 3384.33 9699.01 3371C9732.61 3357.67 9775.01 3351 9826.01 3351C9876.01 3351 9922.11 3357 9964.51 3369V3434.5C9941.11 3427.83 9918.51 3423 9896.51 3420C9874.51 3417 9851.51 3415.5 9827.51 3415.5C9774.51 3415.5 9736.31 3423.83 9713.01 3440.5C9690.01 3456.83 9678.51 3479 9678.51 3507C9678.51 3529 9684.81 3546.83 9697.51 3560.5C9710.51 3574.17 9732.81 3584.17 9764.51 3590.5L9847.01 3605.5C9898.61 3615.17 9936.11 3631.67 9959.51 3655C9983.11 3678 9995.01 3710.17 9995.01 3751.5C9995.01 3801.83 9976.01 3841.17 9938.01 3869.5C9900.31 3897.5 9845.01 3911.5 9772.01 3911.5ZM10294.3 3911C10236.3 3911 10190.7 3895 10157.3 3863C10124.3 3831 10107.8 3780.33 10107.8 3711V3359.5H10189.8V3707C10189.8 3753.67 10200.5 3787.33 10221.8 3808C10243.2 3828.33 10273.3 3838.5 10312.3 3838.5C10341.3 3838.5 10370.2 3832.5 10398.8 3820.5C10427.8 3808.17 10452.5 3790.17 10472.8 3766.5V3359.5H10554.8V3902H10486.3L10480.3 3842H10475.3C10451 3864.67 10423.3 3881.83 10392.3 3893.5C10361.3 3905.17 10328.7 3911 10294.3 3911ZM10717.9 3902V3094H10799.9V3902H10717.9ZM11201 3841C11220 3841 11244.1 3838 11273.5 3832V3901C11242.5 3908 11212.3 3911.5 11183 3911.5C11122 3911.5 11075.5 3896.17 11043.5 3865.5C11011.5 3834.5 10995.5 3787.33 10995.5 3724V3427H10888.5V3359.5H10995.5L11009.5 3162H11077.5V3359.5H11265V3427H11077.5V3710.5C11077.5 3757.17 11087.6 3790.67 11108 3811C11128.3 3831 11159.3 3841 11201 3841ZM11536.8 3351C11586.5 3351 11627.3 3357.33 11659.3 3370C11691.3 3382.33 11715.3 3403 11731.3 3432C11747.7 3461 11755.8 3500.17 11755.8 3549.5V3902H11687.3L11681.3 3840.5H11675.8C11657.2 3862.5 11632.8 3879.83 11602.8 3892.5C11572.8 3904.83 11541 3911 11507.3 3911C11471.3 3911 11440.3 3905 11414.3 3893C11388.7 3881 11369 3863.83 11355.3 3841.5C11341.7 3819.17 11334.8 3792.83 11334.8 3762.5C11334.8 3715.17 11351.2 3678.5 11383.8 3652.5C11416.5 3626.17 11468.7 3609.5 11540.3 3602.5L11675.3 3588V3546C11675.3 3513 11669.8 3487.17 11658.8 3468.5C11648.2 3449.83 11632 3436.67 11610.3 3429C11589 3421.33 11561.2 3417.5 11526.8 3417.5C11502.8 3417.5 11477.2 3419.67 11449.8 3424C11422.5 3428 11396 3434.33 11370.3 3443V3376.5C11394 3368.17 11420.7 3361.83 11450.3 3357.5C11480 3353.17 11508.8 3351 11536.8 3351ZM11527.3 3848C11555 3848 11581.5 3842.67 11606.8 3832C11632.5 3821 11655.3 3804.67 11675.3 3783V3642.5L11545.8 3656.5C11500.5 3661.83 11467.8 3672.5 11447.8 3688.5C11427.8 3704.17 11417.8 3726.5 11417.8 3755.5C11417.8 3785.17 11427 3808 11445.3 3824C11463.7 3840 11491 3848 11527.3 3848ZM11912.2 3359.5H11981.2L11987.2 3421.5H11992.7C12017 3398.83 12045 3381.5 12076.7 3369.5C12108.4 3357.17 12141.7 3351 12176.7 3351C12235.7 3351 12281.7 3367.33 12314.7 3400C12348 3432.33 12364.7 3483.5 12364.7 3553.5V3902H12282.7V3556.5C12282.7 3509.5 12271.9 3475.67 12250.2 3455C12228.9 3434.33 12197.9 3424 12157.2 3424C12128.2 3424 12099 3429.83 12069.7 3441.5C12040.4 3453.17 12015.2 3471 11994.2 3495V3902H11912.2V3359.5ZM12758.6 3841C12777.6 3841 12801.8 3838 12831.1 3832V3901C12800.1 3908 12769.9 3911.5 12740.6 3911.5C12679.6 3911.5 12633.1 3896.17 12601.1 3865.5C12569.1 3834.5 12553.1 3787.33 12553.1 3724V3427H12446.1V3359.5H12553.1L12567.1 3162H12635.1V3359.5H12822.6V3427H12635.1V3710.5C12635.1 3757.17 12645.3 3790.67 12665.6 3811C12685.9 3831 12716.9 3841 12758.6 3841ZM13050.3 3911.5C12990.3 3911.5 12936.1 3904 12887.8 3889V3823.5C12915.8 3831.83 12942.8 3837.83 12968.8 3841.5C12995.1 3845.17 13022.5 3847 13050.8 3847C13100.8 3847 13137.1 3839.33 13159.8 3824C13182.8 3808.67 13194.3 3786.17 13194.3 3756.5C13194.3 3732.17 13187.6 3713.67 13174.3 3701C13161.3 3688 13138.3 3678.5 13105.3 3672.5L13022.3 3657C12971.6 3647.33 12934.8 3630.5 12911.8 3606.5C12889.1 3582.17 12877.8 3549.67 12877.8 3509C12877.8 3477.67 12886 3450.17 12902.3 3426.5C12918.6 3402.83 12943.6 3384.33 12977.3 3371C13011 3357.67 13053.3 3351 13104.3 3351C13154.3 3351 13200.5 3357 13242.8 3369V3434.5C13219.5 3427.83 13196.8 3423 13174.8 3420C13152.8 3417 13129.8 3415.5 13105.8 3415.5C13052.8 3415.5 13014.6 3423.83 12991.3 3440.5C12968.3 3456.83 12956.8 3479 12956.8 3507C12956.8 3529 12963.1 3546.83 12975.8 3560.5C12988.8 3574.17 13011.1 3584.17 13042.8 3590.5L13125.3 3605.5C13177 3615.17 13214.5 3631.67 13237.8 3655C13261.5 3678 13273.3 3710.17 13273.3 3751.5C13273.3 3801.83 13254.3 3841.17 13216.3 3869.5C13178.6 3897.5 13123.3 3911.5 13050.3 3911.5Z" fill="white"/>
<path d="M14877 2493H1261.01V2643H14877V2493Z" fill="white"/>
</svg>
